
<svg id="Group_9804" data-name="Group 9804" xmlns="http://www.w3.org/2000/svg" xmlns:xlink="http://www.w3.org/1999/xlink" width="293.28" height="139.191" viewBox="0 0 293.28 139.191">
    <defs>
        <clipPath id="clip-path">
            <rect id="Rectangle_2162" data-name="Rectangle 2162" width="293.28" height="139.191" rx="9.889" fill="none"/>
        </clipPath>
        <linearGradient id="linear-gradient" x1="0.5" x2="0.63" y2="1.312" gradientUnits="objectBoundingBox">
            <stop offset="0" stop-color="#78bbf3" stop-opacity="0.698"/>
            <stop offset="1" stop-color="#0f1c31" stop-opacity="0"/>
        </linearGradient>
    </defs>
    <g id="Group_9803" data-name="Group 9803" clip-path="url(#clip-path)">
        <path id="Shape_1-2" data-name="Shape 1-2" d="M290.764,327.624H413.539l6.429-3.329h6l7.714-1.109,3,.883,4.286-2.437,2.144,2.437,12.429-1.323,4.286-6.654,4.713,3.548,7.286-11.753,2.144-.883,3,3.771,9-13.308.857,2.218,6.857-62.327,1.714,26.621,3-13.973s2.213,5.029,2.144,7.986-1.158.522,0,3.327.859,8.428.859,8.428l2.142,3.548-.857,12.65.857,7.54,3.853-22.624,1.287,12.866,2.571,3.327,1.287,5.545,1.712,5.322,3.853-14.413,2.57,5.322,4.286,3.771s2.832,8.482,4.715,8.428,5.141-9.981,5.141-9.981l.859,6.433,2.144,3.1,4.286-7.763.428,4.436,2.144,1.109,5.572-2.218,1.285,1.553,2.144.223.859,1.774,2.568,4.878v7.986l6.429-5.991a18.432,18.432,0,0,0,3,3.994l1.714,1.553s3-2.133,3-3.992,3-2.218,3-2.218l1.714,2.441s1.3,1.859,3-2.441-.312-2.747,1.714-5.322,5.514-3.584,6.429-4.88.8-8.292.857-9.981,3.428-2,3.428-2l1.714-13.752,3.852,4.215.857,5.322,2.571,3.992,2.571-12.648.855,5.766,1.287,3.106,1.714,3.99,3.427-.883.859,7.1,5.141,2.883v-6l3,.223,1.287,1.323v6.654l5.57-.221,5.143-6.654,4.286-6.877,1.285,3.327a3.527,3.527,0,0,1,1.714,3.55,17.049,17.049,0,0,0,1.285,6.21l2.144,8.872,8.571-18.632,3.853-2,2.571-1.774,2.571,5.322,3.852-.221v-8.651l3.852-7.319,1.712,3.773,1.287,3.327.565-1.412,4.592-10.775s4.793-8.729,6.221-11.713S685.2,238.63,685.2,238.63l3.448-.839,1.714-20.627,1.283-1.323V145.309h5.143v-1.774h12V330.291l-417.2.578Z" transform="translate(-411.193 -192.733)" opacity="0.84" fill="url(#linear-gradient)" style="mix-blend-mode: normal;isolation: isolate"/>
    </g>
</svg>
