
<svg xmlns="http://www.w3.org/2000/svg" xmlns:xlink="http://www.w3.org/1999/xlink" width="293.113" height="139.065" viewBox="0 0 293.113 139.065">
    <defs>
        <clipPath id="clip-path">
            <rect id="Rectangle_2159" data-name="Rectangle 2159" width="293.113" height="139.065" rx="9.889" fill="none"/>
        </clipPath>
        <linearGradient id="linear-gradient" y1="0.5" x2="1" y2="0.5" gradientUnits="objectBoundingBox">
            <stop offset="0" stop-color="#ffc067" stop-opacity="0.4"/>
            <stop offset="1" stop-color="#e3d9ca" stop-opacity="0.2"/>
        </linearGradient>
    </defs>
    <g id="Group_9797" data-name="Group 9797" opacity="0.73">
        <g id="Group_9796" data-name="Group 9796" clip-path="url(#clip-path)">
            <path id="Shape_1-2" data-name="Shape 1-2" d="M123.516,327.482h122.7l6.426-3.325h6l7.709-1.109,3,.882,4.284-2.437,2.142,2.437,12.42-1.323,4.284-6.649,4.711,3.546,7.281-11.744,2.142-.881,3,3.767,8.992-13.3.857,2.216,6.852-62.269,1.714,26.6,3-13.96s2.211,5.023,2.144,7.977-1.158.522,0,3.325.857,8.419.857,8.419l2.142,3.546-.857,12.638.857,7.535,3.849-22.6,1.285,12.853,2.571,3.325,1.285,5.54,1.712,5.318,3.851-14.4,2.568,5.317,4.284,3.769s2.831,8.473,4.711,8.419,5.139-9.972,5.139-9.972l.857,6.426,2.142,3.1,4.284-7.756.428,4.432,2.144,1.107,5.569-2.214,1.285,1.551,2.142.221.857,1.772,2.568,4.875v7.979l6.426-5.984a18.437,18.437,0,0,0,3,3.988l1.712,1.553s3-2.133,3-3.988,3-2.216,3-2.216l1.712,2.437s1.3,1.857,3-2.437-.312-2.745,1.712-5.319,5.511-3.581,6.426-4.876.8-8.283.857-9.972,3.427-1.993,3.427-1.993l1.712-13.739,3.851,4.21.857,5.318,2.57,3.988,2.571-12.638.854,5.761,1.285,3.1,1.714,3.988,3.425-.882.857,7.091,5.139,2.883v-6l3,.223,1.285,1.323V294.9l5.569-.221,5.139-6.649,4.284-6.87,1.283,3.323a3.52,3.52,0,0,1,1.714,3.546,17.022,17.022,0,0,0,1.285,6.2L474.5,303.1l8.568-18.616,3.849-1.993,2.57-1.772,2.571,5.318,3.849-.223v-8.642l3.851-7.312,1.712,3.767,1.285,3.323.564-1.408,4.59-10.766s4.791-8.72,6.219-11.7,3.6-14.509,3.6-14.509l3.447-.837,1.712-20.609,1.283-1.323V145.332h5.141V143.56H541.3V330.146l-416.959.578Z" transform="translate(-243.877 -192.712)" opacity="0.66" fill="url(#linear-gradient)"/>
        </g>
    </g>
</svg>
