
<svg id="Group_9795" data-name="Group 9795" xmlns="http://www.w3.org/2000/svg" xmlns:xlink="http://www.w3.org/1999/xlink" width="292.961" height="138.877" viewBox="0 0 292.961 138.877">
    <defs>
        <clipPath id="clip-path">
            <rect id="Rectangle_2156" data-name="Rectangle 2156" width="292.961" height="138.877" rx="9.889" fill="none"/>
        </clipPath>
        <linearGradient id="linear-gradient" x1="0.5" x2="0.695" y2="1.051" gradientUnits="objectBoundingBox">
            <stop offset="0" stop-color="#c2e1fb"/>
            <stop offset="1" stop-color="#1b5f95" stop-opacity="0"/>
        </linearGradient>
    </defs>
    <g id="Group_9794" data-name="Group 9794" clip-path="url(#clip-path)">
        <path id="Shape_1-2" data-name="Shape 1-2" d="M-43.772,327.27H78.87l6.422-3.32h5.991l7.707-1.107,3,.881,4.282-2.434,2.14,2.434,12.415-1.321,4.282-6.639,4.708,3.543,7.279-11.73,2.14-.881,3,3.764,8.986-13.279.857,2.214,6.85-62.187,1.711,26.563,3-13.942s2.209,5.018,2.142,7.968-1.158.52,0,3.32.857,8.408.857,8.408l2.14,3.541-.857,12.621.857,7.524,3.849-22.573,1.283,12.837,2.57,3.318,1.285,5.534,1.712,5.309,3.847-14.381,2.568,5.311,4.28,3.762s2.829,8.464,4.71,8.41,5.137-9.959,5.137-9.959l.855,6.417,2.142,3.1,4.282-7.745.428,4.425,2.14,1.107,5.567-2.214,1.283,1.551,2.142.221.857,1.77,2.566,4.867v7.966l6.422-5.974a18.51,18.51,0,0,0,3,3.985L233.4,311.8s3-2.129,3-3.983,3-2.213,3-2.213l1.712,2.434s1.3,1.856,3-2.434-.312-2.742,1.712-5.311,5.507-3.577,6.422-4.869.8-8.272.857-9.959,3.423-1.991,3.423-1.991l1.712-13.721,3.847,4.2.857,5.311,2.57,3.983,2.57-12.621.853,5.755,1.285,3.1,1.712,3.983,3.423-.881.857,7.082,5.137,2.878v-5.991l3,.223,1.285,1.319v6.639l5.565-.221,5.137-6.639,4.282-6.861,1.283,3.32a3.51,3.51,0,0,1,1.711,3.541,17,17,0,0,0,1.285,6.2l2.142,8.852,8.562-18.588,3.847-1.991,2.57-1.77,2.57,5.311,3.847-.221v-8.631l3.847-7.3,1.712,3.764,1.285,3.32.564-1.408,4.588-10.751s4.788-8.709,6.214-11.686,3.6-14.49,3.6-14.49l3.445-.837,1.712-20.58,1.283-1.321V145.366h5.137V143.6H373.8V329.932l-416.743.576Z" transform="translate(-76.527 -190.631)" fill="url(#linear-gradient)" style="mix-blend-mode: normal;isolation: isolate"/>
    </g>
</svg>
