<svg xmlns="http://www.w3.org/2000/svg" width="23.121" height="27.745" viewBox="0 0 23.121 27.745">
  <path id="Vector" d="M21.429,9.007a1.711,1.711,0,0,0-1.692,1.716v7.149a1.692,1.692,0,1,0,3.384,0V10.723A1.706,1.706,0,0,0,21.429,9.007Zm-19.738,0A1.711,1.711,0,0,0,0,10.723v7.149a1.711,1.711,0,0,0,1.692,1.716,1.711,1.711,0,0,0,1.692-1.716V10.723A1.706,1.706,0,0,0,1.692,9.007ZM19.107,9.3V20.395a1.832,1.832,0,0,1-1.824,1.85H16.072v3.785a1.692,1.692,0,1,1-3.384,0V22.245H10.433v3.785a1.692,1.692,0,1,1-3.384,0V22.245H5.838a1.832,1.832,0,0,1-1.824-1.85V9.3ZM15.259,2.548,16.453.362a.238.238,0,0,0-.091-.328A.267.267,0,0,0,16.246,0a.228.228,0,0,0-.207.126l-1.211,2.2a8,8,0,0,0-6.535,0l-1.2-2.2A.233.233,0,0,0,6.767.034a.24.24,0,0,0-.091.328L7.87,2.548A7,7,0,0,0,4.022,8.7H19.116A7.011,7.011,0,0,0,15.259,2.548ZM8.077,5.9a.639.639,0,1,1,.63-.639A.634.634,0,0,1,8.077,5.9Zm6.966,0a.639.639,0,1,1,.63-.639A.634.634,0,0,1,15.044,5.9Z" fill="#fff"/>
</svg>
