<svg xmlns="http://www.w3.org/2000/svg" width="22.35" height="27.745" viewBox="0 0 22.35 27.745">
  <path id="Vector" d="M11.349,7.972c-1.084,0-2.761-1.246-4.528-1.2A6.676,6.676,0,0,0,1.15,10.254C-1.27,14.5.526,20.778,2.887,24.231c1.158,1.681,2.524,3.573,4.335,3.513,1.737-.075,2.39-1.141,4.5-1.141s2.687,1.141,4.528,1.1c1.871-.03,3.058-1.711,4.2-3.408a15.167,15.167,0,0,0,1.9-3.948,6.114,6.114,0,0,1-3.682-5.615,6.233,6.233,0,0,1,2.969-5.27A6.4,6.4,0,0,0,16.62,6.711c-2.286-.18-4.2,1.261-5.27,1.261Zm3.86-3.543A6.113,6.113,0,0,0,16.635,0,6.15,6.15,0,0,0,12.6,2.1,5.845,5.845,0,0,0,11.141,6.4,5.1,5.1,0,0,0,15.209,4.429Z" fill="#fff"/>
</svg>
