<svg id="Frame" xmlns="http://www.w3.org/2000/svg" xmlns:xlink="http://www.w3.org/1999/xlink" width="155.7" height="45" viewBox="0 0 155.7 45">
  <defs>
    <linearGradient id="linear-gradient" x1="0.001" y1="0.503" x2="1" y2="0.503" gradientUnits="objectBoundingBox">
      <stop offset="0" stop-color="#fedea9"/>
      <stop offset="1" stop-color="#ee743b"/>
    </linearGradient>
    <linearGradient id="linear-gradient-2" x1="0" y1="0.498" x2="0.998" y2="0.498" xlink:href="#linear-gradient"/>
  </defs>
  <g id="Group">
    <path id="Vector" d="M12.6,0V5.5h-3V0L0,1.7C.4,17.2,9.5,23.3,9.5,23.3V10.5h3V23.3s9.2-6.1,9.6-21.6Z" transform="translate(3.5 21.7)" fill="#16223b"/>
    <g id="Group-2" data-name="Group">
      <path id="Vector-2" data-name="Vector" d="M11.4,7.1H3.5V0H0V17.7H3.5V10.5h7.9v7.2h3.5V0H11.4Z" transform="translate(29.1 24.5)" fill="#16223b"/>
      <path id="Vector-3" data-name="Vector" d="M15.4,2.7a9.989,9.989,0,0,0-2.9-2A8.424,8.424,0,0,0,9,0,8.116,8.116,0,0,0,5.5.7a9.423,9.423,0,0,0-2.9,2A8.123,8.123,0,0,0,.7,5.6,8.116,8.116,0,0,0,0,9.1a8.116,8.116,0,0,0,.7,3.5,11.18,11.18,0,0,0,1.9,2.9,8.123,8.123,0,0,0,2.9,1.9,8.424,8.424,0,0,0,3.5.7,8.424,8.424,0,0,0,3.5-.7,9.721,9.721,0,0,0,2.9-1.9,9.989,9.989,0,0,0,2-2.9,8.424,8.424,0,0,0,.7-3.5,8.424,8.424,0,0,0-.7-3.5A8.373,8.373,0,0,0,15.4,2.7Zm-1.3,8.6A5.444,5.444,0,0,1,13,13.1a5.229,5.229,0,0,1-1.7,1.2,4.918,4.918,0,0,1-2.1.4A5.381,5.381,0,0,1,7,14.3a5.515,5.515,0,0,1-3-3,5.381,5.381,0,0,1-.4-2.2A5.382,5.382,0,0,1,4,6.9,5.675,5.675,0,0,1,5.2,5.1,6.57,6.57,0,0,1,6.9,3.9,5.222,5.222,0,0,1,9,3.5a4.638,4.638,0,0,1,2.1.4,5.229,5.229,0,0,1,1.7,1.2A5.675,5.675,0,0,1,14,6.9a5.381,5.381,0,0,1,.4,2.2A4.086,4.086,0,0,1,14.1,11.3Z" transform="translate(47.5 24.3)" fill="#16223b"/>
      <path id="Vector-4" data-name="Vector" d="M12.5,11.4.1,0H0V18.4H3.5V7.9L15.9,19.1V.7H12.4Z" transform="translate(69.1 23.8)" fill="#16223b"/>
      <path id="Vector-5" data-name="Vector" d="M15.4,2.7a9.989,9.989,0,0,0-2.9-2A8.424,8.424,0,0,0,9,0,8.116,8.116,0,0,0,5.5.7a9.423,9.423,0,0,0-2.9,2A8.123,8.123,0,0,0,.7,5.6,8.116,8.116,0,0,0,0,9.1a8.116,8.116,0,0,0,.7,3.5,11.18,11.18,0,0,0,1.9,2.9,8.123,8.123,0,0,0,2.9,1.9,8.424,8.424,0,0,0,3.5.7,8.424,8.424,0,0,0,3.5-.7,9.721,9.721,0,0,0,2.9-1.9,9.989,9.989,0,0,0,2-2.9,8.424,8.424,0,0,0,.7-3.5,8.424,8.424,0,0,0-.7-3.5A8.373,8.373,0,0,0,15.4,2.7Zm-1.3,8.6A5.444,5.444,0,0,1,13,13.1a5.229,5.229,0,0,1-1.7,1.2,4.918,4.918,0,0,1-2.1.4A5.381,5.381,0,0,1,7,14.3a5.515,5.515,0,0,1-3-3,5.381,5.381,0,0,1-.4-2.2A5.382,5.382,0,0,1,4,6.9,5.675,5.675,0,0,1,5.2,5.1,6.57,6.57,0,0,1,6.9,3.9,5.222,5.222,0,0,1,9,3.5a4.638,4.638,0,0,1,2.1.4,5.229,5.229,0,0,1,1.7,1.2A5.675,5.675,0,0,1,14,6.9a5.381,5.381,0,0,1,.4,2.2A4.086,4.086,0,0,1,14.1,11.3Z" transform="translate(88.5 24.3)" fill="#16223b"/>
      <path id="Vector-6" data-name="Vector" d="M11,10.2a7.814,7.814,0,0,0,1.1-2A7.8,7.8,0,0,0,12.4,6a6.963,6.963,0,0,0-.5-2.5,4.968,4.968,0,0,0-1.3-1.9A6.6,6.6,0,0,0,8.4.4a9.476,9.476,0,0,0-3-.4H0V3.4H6a3.339,3.339,0,0,1,1.5.3,2.047,2.047,0,0,1,.8.8,1.613,1.613,0,0,1,.3.9,1.952,1.952,0,0,1,.1.7,2.2,2.2,0,0,1-.1.8,3.552,3.552,0,0,1-.4.9,2.7,2.7,0,0,1-.8.7,2.768,2.768,0,0,1-1.3.3H.1v9H3.6V12.2H5.9l3.7,5.6h4.1L9.6,11.4A5.531,5.531,0,0,0,11,10.2Z" transform="translate(110 24.4)" fill="#16223b"/>
    </g>
    <path id="Vector-7" data-name="Vector" d="M24.6,17.8l-4-6.1-3.4,6.1H12.9l5.8-9.1L13.1.1h4.5L21.4,6,24.7.1h4.2L23.3,8.9l5.8,8.9ZM0,17.8H3.5v-7h6.6V7.4H3.5v-4h7.6V0H0Z" transform="translate(126.6 24.4)" fill="url(#linear-gradient)"/>
    <path id="Vector-8" data-name="Vector" d="M10.7,16.2a3.4,3.4,0,0,0,2.9-2.8,3.286,3.286,0,0,0-1.4-3.2l2.4-6,2.4,6a3.189,3.189,0,0,0-1.4,2.7,3.581,3.581,0,0,0,1.1,2.5,3.525,3.525,0,0,0,2.6.8,3.394,3.394,0,0,0,2.9-2.9,3.079,3.079,0,0,0-.3-1.9L26.1,8,22.5,19.3a13.493,13.493,0,0,0-2.4-.8,22.745,22.745,0,0,0-11,0,13.493,13.493,0,0,0-2.4.8L3.1,8.1l4.2,3.4A3.194,3.194,0,0,0,7,12.9a3.581,3.581,0,0,0,1.1,2.5,3.5,3.5,0,0,0,2.2.8ZM10.2,11l.7.3A1.754,1.754,0,0,1,12,13.2a1.7,1.7,0,0,1-1.5,1.5,1.792,1.792,0,0,1-1.4-.4A1.612,1.612,0,0,1,8.5,13a1.5,1.5,0,0,1,.4-1.1l.5-.6L0,3.7,5.8,21.8l.8-.4a13.578,13.578,0,0,1,2.9-1.1,19.6,19.6,0,0,1,10.2,0,16.023,16.023,0,0,1,2.9,1.1l.8.4L29.2,3.7l-9.4,7.5.5.6a2.2,2.2,0,0,1,.4,1.3,1.7,1.7,0,0,1-1.5,1.5,1.792,1.792,0,0,1-1.4-.4,1.612,1.612,0,0,1-.6-1.3,1.761,1.761,0,0,1,1.1-1.6L19,11,14.6,0Z" fill="url(#linear-gradient-2)"/>
  </g>
</svg>
