
<svg width="156" height="45" viewBox="0 0 156 45" fill="none" xmlns="http://www.w3.org/2000/svg">
    <g clip-path="url(#clip0)">
        <path d="M16.08 21.7202V27.2602H13.05V21.7202L3.48999 23.4002C3.86999 38.8502 13.05 45.0002 13.05 45.0002V32.1802H16.08V45.0002C16.08 45.0002 25.26 38.8502 25.64 23.3902L16.08 21.7202Z" fill="white"/>
        <path d="M10.67 16.21C12.15 16.04 13.37 14.85 13.57 13.37C13.74 12.12 13.2 10.9 12.18 10.19L14.56 4.23L16.94 10.19C16.06 10.81 15.52 11.83 15.52 12.91C15.52 13.85 15.92 14.75 16.63 15.38C17.34 16.01 18.28 16.31 19.22 16.2C20.71 16.03 21.93 14.83 22.13 13.35C22.22 12.7 22.11 12.06 21.84 11.48L26.05 8.12L22.43 19.46C21.73 19.16 20.93 18.89 20.05 18.65C16.47 17.7 12.63 17.7 9.05 18.65C8.17 18.88 7.37 19.16 6.67 19.46L3.08 8.13L7.29 11.49C7.08 11.93 6.97 12.42 6.97 12.91C6.97 13.85 7.37 14.76 8.08 15.38C8.69 15.92 9.48 16.22 10.29 16.22C10.42 16.23 10.55 16.23 10.67 16.21ZM10.17 11L10.91 11.29C11.67 11.58 12.12 12.35 12.01 13.16C11.91 13.93 11.27 14.56 10.49 14.65C9.98 14.71 9.5 14.55 9.12 14.22C8.75 13.89 8.54 13.42 8.54 12.92C8.54 12.51 8.68 12.13 8.93 11.82L9.44 11.2L0 3.66L5.76 21.71L6.59 21.26C7.36 20.85 8.33 20.48 9.47 20.18C12.8 19.3 16.32 19.3 19.66 20.18C20.81 20.48 21.78 20.85 22.55 21.26L23.38 21.71L29.14 3.66L19.7 11.2L20.2 11.82C20.51 12.2 20.64 12.67 20.58 13.16C20.48 13.94 19.84 14.56 19.06 14.65C18.55 14.71 18.07 14.56 17.69 14.22C17.32 13.89 17.11 13.42 17.11 12.92C17.11 12.2 17.56 11.55 18.23 11.29L18.97 11L14.57 0L10.17 11Z" fill="url(#paint0_linear)"/>
        <path d="M40.54 31.6397H32.63V24.4897H29.14V42.1997H32.63V35.0097H40.54V42.1997H44.03V24.4897H40.54V31.6397Z" fill="white"/>
        <path d="M62.93 27.0096C62.09 26.1696 61.12 25.5096 60.03 25.0296C58.94 24.5496 57.78 24.3096 56.54 24.3096C55.29 24.3096 54.12 24.5496 53.03 25.0296C51.94 25.5096 50.98 26.1696 50.16 27.0096C49.33 27.8496 48.69 28.8196 48.22 29.9096C47.75 30.9996 47.52 32.1596 47.52 33.3696C47.52 34.6196 47.75 35.7896 48.22 36.8796C48.68 37.9696 49.33 38.9296 50.16 39.7496C50.99 40.5796 51.94 41.2196 53.03 41.6896C54.12 42.1596 55.29 42.3896 56.54 42.3896C57.77 42.3896 58.94 42.1596 60.03 41.6896C61.12 41.2196 62.09 40.5796 62.93 39.7496C63.77 38.9196 64.43 37.9696 64.9 36.8796C65.37 35.7896 65.61 34.6196 65.61 33.3696C65.61 32.1496 65.37 30.9996 64.9 29.9096C64.43 28.8196 63.77 27.8496 62.93 27.0096ZM61.59 35.5696C61.32 36.2496 60.94 36.8496 60.46 37.3696C59.98 37.8896 59.41 38.2996 58.76 38.5796C58.11 38.8696 57.41 39.0096 56.66 39.0096C55.87 39.0096 55.15 38.8696 54.48 38.5796C53.81 38.2896 53.23 37.8896 52.72 37.3696C52.21 36.8496 51.82 36.2496 51.54 35.5696C51.26 34.8896 51.12 34.1496 51.12 33.3696C51.12 32.5696 51.26 31.8196 51.53 31.1296C51.8 30.4396 52.19 29.8296 52.69 29.3096C53.19 28.7896 53.76 28.3796 54.42 28.0996C55.08 27.8096 55.79 27.6696 56.56 27.6696C57.33 27.6696 58.04 27.8096 58.7 28.0996C59.36 28.3896 59.93 28.7896 60.42 29.3096C60.91 29.8296 61.29 30.4396 61.57 31.1296C61.85 31.8196 61.99 32.5696 61.99 33.3696C62 34.1596 61.87 34.8896 61.59 35.5696Z" fill="white"/>
        <path d="M81.61 35.1598L69.24 23.7998H69.1V42.1998H72.63L72.57 31.7298L84.95 42.9198H85.05V24.4898H81.54L81.61 35.1598Z" fill="white"/>
        <path d="M103.94 27.0096C103.1 26.1696 102.13 25.5096 101.04 25.0296C99.95 24.5496 98.79 24.3096 97.55 24.3096C96.3 24.3096 95.13 24.5496 94.04 25.0296C92.95 25.5096 91.99 26.1696 91.17 27.0096C90.34 27.8496 89.7 28.8196 89.23 29.9096C88.76 30.9996 88.53 32.1596 88.53 33.3696C88.53 34.6196 88.76 35.7896 89.23 36.8796C89.69 37.9696 90.34 38.9296 91.17 39.7496C92 40.5796 92.95 41.2196 94.04 41.6896C95.13 42.1596 96.3 42.3896 97.55 42.3896C98.78 42.3896 99.95 42.1596 101.04 41.6896C102.13 41.2196 103.1 40.5796 103.94 39.7496C104.78 38.9196 105.44 37.9696 105.91 36.8796C106.38 35.7896 106.62 34.6196 106.62 33.3696C106.62 32.1496 106.38 30.9996 105.91 29.9096C105.44 28.8196 104.79 27.8496 103.94 27.0096ZM102.61 35.5696C102.34 36.2496 101.96 36.8496 101.48 37.3696C101 37.8896 100.43 38.2996 99.78 38.5796C99.13 38.8696 98.43 39.0096 97.68 39.0096C96.89 39.0096 96.17 38.8696 95.5 38.5796C94.83 38.2896 94.25 37.8896 93.74 37.3696C93.23 36.8496 92.84 36.2496 92.56 35.5696C92.28 34.8896 92.14 34.1496 92.14 33.3696C92.14 32.5696 92.28 31.8196 92.55 31.1296C92.82 30.4396 93.21 29.8296 93.71 29.3096C94.21 28.7896 94.78 28.3796 95.44 28.0996C96.1 27.8096 96.81 27.6696 97.58 27.6696C98.35 27.6696 99.06 27.8096 99.72 28.0996C100.38 28.3896 100.95 28.7896 101.44 29.3096C101.93 29.8296 102.31 30.4396 102.59 31.1296C102.87 31.8196 103.01 32.5696 103.01 33.3696C103.02 34.1596 102.88 34.8896 102.61 35.5696Z" fill="white"/>
        <path d="M121.02 34.5997C121.51 34.0097 121.86 33.3497 122.08 32.6297C122.3 31.9097 122.4 31.1897 122.4 30.4597C122.4 29.5497 122.25 28.7197 121.94 27.9897C121.64 27.2597 121.19 26.6297 120.6 26.1097C120.01 25.5897 119.29 25.1897 118.42 24.9097C117.55 24.6297 116.57 24.4897 115.46 24.4897H110.1V27.8597H116.09C116.7 27.8597 117.18 27.9597 117.55 28.1697C117.91 28.3797 118.18 28.6397 118.36 28.9397C118.54 29.2397 118.65 29.5497 118.71 29.8397C118.77 30.1397 118.79 30.3797 118.79 30.5697C118.79 30.8297 118.75 31.0997 118.66 31.3997C118.57 31.6997 118.43 31.9797 118.23 32.2497C118.03 32.5197 117.75 32.7497 117.4 32.9197C117.05 33.0997 116.61 33.1797 116.08 33.1797H110.11V42.1797H113.6V36.5497H115.92L119.66 42.1797H123.73L119.61 35.7397C120.17 35.4397 120.65 35.0597 121.02 34.5997Z" fill="white"/>
        <path d="M151.19 42.2002L147.22 36.0902L143.78 42.2002H139.45L145.26 33.0702L139.69 24.5002H144.14L147.97 30.3802L151.28 24.5002H155.51L149.87 33.3002L155.68 42.2002H151.19ZM126.62 42.2002H130.11V35.2502H136.68V31.8802H130.11V27.8602H137.69V24.4902H126.62V42.2002Z" fill="url(#paint1_linear)"/>
    </g>
    <defs>
        <linearGradient id="paint0_linear" x1="0" y1="10.8577" x2="29.1414" y2="10.8577" gradientUnits="userSpaceOnUse">
            <stop stop-color="#FEDEA9"/>
            <stop offset="1" stop-color="#EE743B"/>
        </linearGradient>
        <linearGradient id="paint1_linear" x1="126.617" y1="33.3458" x2="155.686" y2="33.3458" gradientUnits="userSpaceOnUse">
            <stop stop-color="#FEDEA9"/>
            <stop offset="1" stop-color="#EE743B"/>
        </linearGradient>
        <clipPath id="clip0">
            <rect width="155.69" height="45" fill="white"/>
        </clipPath>
    </defs>
</svg>
