<svg xmlns="http://www.w3.org/2000/svg" xmlns:xlink="http://www.w3.org/1999/xlink" width="113.209" height="139.519" viewBox="0 0 113.209 139.519"><defs><style>.a{fill:url(#a);}.b{opacity:0.29;clip-path:url(#b);}.c{opacity:0.15;mix-blend-mode:luminosity;isolation:isolate;fill:url(#c);}</style><linearGradient id="a" x1="0.5" x2="0.5" y2="1" gradientUnits="objectBoundingBox"><stop offset="0" stop-color="#374564"/><stop offset="1" stop-color="#222f4d"/></linearGradient><clipPath id="b"><path class="a" d="M108.826,0H4.384C1.963,0,0,2.8,0,6.243V133.276c0,3.448,1.963,6.243,4.384,6.243H108.826c2.421,0,4.384-2.8,4.384-6.243V6.243C113.209,2.8,111.247,0,108.826,0Z"/></clipPath><linearGradient id="c" x1="1" y1="0.498" x2="0.002" y2="0.498" gradientUnits="objectBoundingBox"><stop offset="0" stop-color="#fedea9"/><stop offset="1" stop-color="#ee743b"/></linearGradient></defs><g class="b"><path class="c" d="M143.45,125.616c-11.631-1.551-20.936-10.856-22.487-21.711a25.478,25.478,0,0,1,10.856-24.813l-18.61-46.524L94.6,79.091a24.727,24.727,0,0,1,10.856,20.936,27.764,27.764,0,0,1-8.529,19.385,27.336,27.336,0,0,1-20.161,6.2,26.32,26.32,0,0,1-22.487-22.487A23.878,23.878,0,0,1,56.6,88.4L24.038,62.032l27.915,87.621a104.623,104.623,0,0,1,18.61-6.2,176.366,176.366,0,0,1,85.295,0,104.623,104.623,0,0,1,18.61,6.2l27.915-86.845L169.814,89.172a24.767,24.767,0,0,1,2.326,10.856,27.764,27.764,0,0,1-8.529,19.385,27.1,27.1,0,0,1-17.059,6.2Zm3.877-40.321L141.9,87.621c-6.2,2.326-9.3,8.529-8.529,14.733A13.188,13.188,0,0,0,145,113.985c3.877.775,7.754-.775,10.856-3.1a12.5,12.5,0,0,0,4.652-10.08,11.661,11.661,0,0,0-3.1-8.529l-3.877-4.652L226.418,28.69,181.445,169.038l-6.2-3.1a105.284,105.284,0,0,0-22.487-8.529,152.012,152.012,0,0,0-79.091,0,124.244,124.244,0,0,0-22.487,8.529l-6.2,3.1L0,28.69,72.888,86.845,69.011,91.5a17.056,17.056,0,0,0-3.1,10.08,13.188,13.188,0,0,0,11.631,11.631c3.877.775,7.754-.775,10.856-3.1a12.5,12.5,0,0,0,4.652-10.08c0-5.428-3.877-10.856-8.529-12.406l-5.428-2.326L113.209,0Z" transform="translate(-113.209)"/></g></svg>