<svg id="Group_61" data-name="Group 61" xmlns="http://www.w3.org/2000/svg" width="23.892" height="25.433" viewBox="0 0 23.892 25.433">
  <path id="Vector" d="M0,0V.745A2.178,2.178,0,0,0,2.108,2.98H21.784A2.178,2.178,0,0,0,23.892.745V0Z" transform="translate(0 16.889)" fill="#fff"/>
  <path id="Vector-2" data-name="Vector" d="M11.477,1.093h-.81L10.259,0H3.331L2.923,1.093H2.108A2.172,2.172,0,0,0,0,3.328a.724.724,0,0,0,.7.745h12.18a.724.724,0,0,0,.7-.745A2.172,2.172,0,0,0,11.477,1.093Z" transform="translate(5.153 21.36)" fill="#fff"/>
  <g id="Group" transform="translate(0.001)">
    <path id="Vector-3" data-name="Vector" d="M21.784,0H2.108A2.178,2.178,0,0,0,0,2.235V15.4H23.892V2.235A2.178,2.178,0,0,0,21.784,0Z" fill="#fff"/>
  </g>
</svg>
